<?xml version="1.0" standalone="no"?>
<!DOCTYPE svg PUBLIC "-//W3C//DTD SVG 20010904//EN"
 "http://www.w3.org/TR/2001/REC-SVG-20010904/DTD/svg10.dtd">
<svg version="1.0" xmlns="http://www.w3.org/2000/svg"
 width="1280.000000pt" height="1280.000000pt" viewBox="0 0 1280.000000 1280.000000"
 preserveAspectRatio="xMidYMid meet">
<metadata>
Created by potrace 1.14, written by Peter Selinger 2001-2017
</metadata>
<g transform="translate(0.000000,1280.000000) scale(0.100000,-0.100000)"
fill="#000000" stroke="none">
<path d="M7286 11003 c-1 -1 -29 -5 -61 -9 -126 -14 -159 -20 -255 -45 -95
-26 -158 -47 -192 -65 -15 -8 -29 -14 -30 -14 -2 1 -16 -3 -31 -9 -16 -6 -32
-11 -37 -11 -5 0 -10 -3 -12 -7 -1 -5 -28 -20 -58 -35 -187 -94 -388 -256
-517 -415 -21 -27 -41 -50 -44 -53 -3 -3 -20 -27 -39 -55 -19 -27 -36 -52 -39
-55 -25 -22 -167 -313 -163 -332 1 -5 -3 -8 -9 -8 -5 0 -8 -4 -5 -8 3 -5 -1
-21 -9 -36 -8 -15 -14 -30 -13 -34 1 -4 -4 -27 -11 -52 -14 -48 -15 -53 -30
-115 -26 -113 -46 -380 -29 -402 5 -7 5 -14 -2 -18 -6 -3 -8 -10 -6 -14 3 -4
7 -36 11 -71 8 -88 41 -256 63 -326 10 -33 1 -54 -23 -54 -6 0 -40 -19 -76
-42 -36 -24 -85 -54 -110 -67 -24 -13 -51 -29 -59 -36 -8 -6 -46 -29 -84 -51
-75 -43 -81 -47 -143 -87 -24 -15 -47 -27 -52 -27 -5 0 -16 -6 -23 -13 -7 -7
-38 -27 -68 -44 -30 -16 -103 -59 -161 -95 -58 -35 -112 -68 -120 -71 -8 -4
-26 -15 -41 -25 -27 -18 -129 -78 -163 -97 -57 -32 -111 -70 -135 -97 -23 -25
-29 -27 -41 -16 -58 53 -119 107 -147 128 -19 14 -39 30 -45 35 -29 25 -175
121 -231 152 -62 34 -144 74 -226 111 -72 32 -267 95 -333 108 -10 2 -26 5
-35 8 -9 3 -33 7 -52 10 -62 10 -93 17 -103 23 -6 4 -7 1 -2 -7 6 -9 4 -11 -5
-5 -17 11 -47 15 -150 20 -47 2 -87 4 -90 5 -26 7 -286 -10 -374 -25 -102 -17
-177 -34 -246 -55 -25 -7 -47 -14 -50 -15 -16 -4 -58 -17 -75 -25 -44 -18 -91
-35 -104 -37 -8 -1 -18 -8 -22 -15 -5 -7 -9 -10 -9 -5 0 4 -27 -6 -60 -23 -33
-17 -61 -29 -62 -28 -2 2 -17 -7 -35 -20 -17 -12 -36 -22 -42 -22 -6 0 -11 -4
-11 -10 0 -5 -3 -9 -8 -7 -8 2 -185 -113 -190 -125 -2 -4 -10 -8 -17 -8 -7 0
-15 -3 -17 -7 -1 -5 -28 -28 -58 -52 -75 -61 -266 -255 -315 -321 -22 -29 -48
-61 -57 -72 -10 -10 -18 -20 -18 -23 0 -4 -18 -32 -82 -128 -66 -98 -216 -446
-202 -468 3 -5 1 -9 -4 -9 -7 0 -48 -153 -58 -220 -2 -8 -6 -35 -10 -60 -23
-143 -33 -396 -20 -505 2 -16 7 -57 10 -90 6 -51 33 -195 49 -260 19 -79 29
-113 37 -130 5 -11 14 -38 21 -60 12 -41 28 -80 70 -170 12 -27 22 -53 21 -57
-1 -5 2 -8 8 -8 5 0 10 -5 10 -11 0 -17 101 -185 166 -276 139 -193 373 -421
522 -508 17 -11 32 -23 32 -27 0 -4 7 -8 15 -8 8 0 15 -5 15 -12 0 -6 3 -8 7
-5 3 4 21 -4 39 -18 18 -14 35 -25 37 -25 2 0 37 -18 77 -40 40 -22 79 -40 86
-40 8 0 14 -5 14 -12 0 -6 2 -9 6 -6 3 3 40 -9 82 -27 74 -31 231 -81 288 -91
15 -3 31 -7 35 -9 4 -3 24 -7 45 -10 22 -3 62 -10 90 -16 28 -5 55 -9 60 -8 5
1 11 0 14 -1 31 -12 377 -17 460 -6 110 13 166 22 210 31 14 3 41 8 60 11 19
3 42 10 50 14 8 4 18 8 23 9 4 1 8 1 10 2 1 0 15 3 32 5 16 3 35 10 42 16 7 6
13 7 13 3 0 -4 7 -2 15 5 8 7 15 10 15 6 0 -4 13 0 30 9 16 8 31 15 32 14 2 0
16 4 31 10 16 6 30 11 32 11 3 0 33 14 67 30 34 17 67 30 75 30 7 0 13 4 13 9
0 5 12 14 28 20 33 12 102 52 120 68 6 6 21 15 32 18 11 3 20 11 20 16 0 6 4
8 9 5 5 -4 11 -3 13 2 1 4 28 25 58 47 89 64 169 134 272 239 l97 99 108 -44
c59 -24 111 -43 116 -41 4 1 7 -3 7 -8 0 -6 10 -10 23 -10 13 0 27 -4 33 -8 5
-5 47 -24 94 -41 47 -18 94 -37 105 -41 11 -5 41 -18 67 -28 25 -11 49 -18 52
-14 3 3 6 0 6 -6 0 -7 3 -11 8 -10 4 1 21 -5 37 -12 17 -7 39 -15 49 -17 11
-2 24 -7 30 -12 6 -5 22 -12 36 -16 14 -4 41 -14 60 -22 19 -8 44 -19 55 -23
11 -5 41 -18 68 -29 26 -11 47 -18 47 -15 0 3 10 -1 23 -8 12 -6 28 -13 36
-14 8 -2 17 -6 20 -11 3 -4 13 -9 21 -11 13 -3 435 -169 705 -277 11 -5 22 -9
25 -10 6 -2 30 -12 104 -42 67 -28 131 -36 177 -23 41 12 99 51 99 68 0 6 3
12 8 12 4 0 13 13 20 29 13 30 15 39 26 122 10 72 16 100 32 164 9 33 17 67
19 75 5 23 24 66 24 56 1 -4 -5 -34 -13 -65 -15 -56 -22 -93 -32 -166 -3 -22
-7 -47 -10 -55 -9 -27 -18 -184 -17 -320 0 -150 6 -240 27 -378 7 -42 35 -173
45 -209 5 -18 7 -33 3 -33 -3 0 -1 -5 6 -12 7 -7 12 -22 12 -33 0 -12 3 -25 8
-29 4 -4 7 -11 8 -14 4 -44 95 -263 157 -382 22 -41 45 -85 51 -97 6 -13 14
-23 19 -23 4 0 7 -5 7 -11 0 -22 172 -259 252 -346 24 -26 73 -76 109 -112 60
-60 86 -83 184 -167 17 -14 57 -44 90 -67 33 -22 62 -44 63 -49 2 -4 10 -8 17
-8 7 0 15 -3 17 -7 4 -10 57 -42 81 -50 9 -3 17 -9 17 -14 0 -5 6 -9 14 -9 7
0 19 -7 26 -15 7 -9 15 -13 18 -11 3 3 17 -3 31 -12 14 -10 64 -35 111 -56 47
-21 98 -45 114 -52 16 -8 36 -14 46 -14 9 0 20 -4 25 -8 12 -10 90 -35 110
-35 8 0 15 -3 15 -7 0 -4 6 -7 13 -8 6 0 39 -8 72 -17 77 -20 189 -43 240 -49
22 -3 54 -8 70 -10 39 -7 174 -18 200 -16 11 1 27 1 35 1 114 -4 390 13 410
24 3 2 26 6 50 10 25 3 73 13 108 21 35 9 68 17 75 18 7 1 39 10 72 20 33 10
65 19 70 21 6 1 19 5 30 10 11 4 49 19 85 32 36 14 90 37 120 51 30 14 57 26
60 27 12 3 85 41 90 46 3 3 26 16 53 29 26 13 47 27 47 32 0 4 5 8 10 8 12 0
92 51 102 65 4 5 8 7 8 3 0 -4 8 -1 18 6 9 8 62 50 117 94 96 75 295 263 295
278 0 3 12 17 28 30 15 13 24 24 20 24 -4 0 5 12 20 28 15 15 34 37 42 48 8
12 39 55 67 97 88 126 182 294 223 397 10 25 25 61 33 80 8 19 16 38 17 42 0
4 12 37 25 73 13 36 21 65 18 65 -3 0 0 7 7 15 7 8 9 15 5 15 -4 0 -2 7 5 15
7 8 10 15 7 15 -3 0 -1 15 4 33 13 43 38 159 44 205 2 20 7 48 10 62 26 119
26 496 0 650 -22 133 -38 215 -56 280 -11 41 -21 80 -22 85 -8 31 -41 124 -53
152 -8 17 -14 34 -14 37 0 3 -16 40 -35 82 -19 41 -35 77 -35 79 0 11 -129
229 -177 298 -59 85 -67 97 -95 128 -10 10 -18 21 -18 24 0 9 -76 90 -181 195
-126 124 -144 140 -229 203 -36 26 -73 55 -83 63 -9 8 -19 14 -21 14 -3 0 -31
17 -63 38 -32 20 -67 43 -78 49 -77 49 -386 187 -440 197 -5 1 -14 4 -20 8
-13 8 -247 65 -299 72 -21 4 -41 8 -45 10 -3 2 -37 7 -75 11 -37 3 -82 8 -99
10 -17 2 -57 5 -89 6 -32 1 -58 6 -58 11 0 4 4 8 10 8 13 0 58 51 77 87 8 15
14 51 13 78 -2 71 -2 75 -12 75 -5 0 -7 4 -4 9 4 5 3 11 -1 13 -5 1 -38 62
-74 133 -141 274 -189 367 -204 388 -8 12 -15 29 -15 38 0 10 -3 19 -7 21 -5
2 -26 39 -48 83 -22 43 -43 84 -48 90 -4 5 -30 55 -58 109 -28 55 -66 128 -85
163 -19 35 -34 70 -34 77 0 8 -4 16 -8 18 -13 5 -122 216 -113 220 7 3 82 101
116 152 56 83 149 263 161 312 3 13 10 24 16 24 5 0 7 4 4 8 -3 5 4 33 15 62
23 61 60 210 63 256 1 16 5 34 8 40 13 23 17 318 5 429 -8 78 -23 170 -27 170
-1 0 -3 11 -6 25 -6 38 -34 129 -56 187 -11 29 -19 53 -17 55 2 2 -4 17 -13
33 -8 17 -22 44 -29 60 -8 17 -30 57 -49 90 -19 33 -35 62 -35 65 0 9 -132
192 -166 230 -64 73 -151 160 -159 160 -5 0 -10 4 -12 8 -1 5 -39 36 -83 70
-44 34 -85 66 -91 71 -20 17 -224 130 -224 125 0 -2 -21 6 -47 19 -47 24 -213
81 -263 91 -123 26 -160 32 -164 28 -3 -2 -10 -1 -17 4 -7 4 -33 9 -58 10 -59
5 -282 10 -285 7z m-523 -3278 c49 -22 148 -55 169 -55 10 0 18 -4 18 -9 0 -5
10 -9 23 -9 12 0 45 -5 72 -12 119 -28 217 -37 383 -34 81 1 153 3 160 5 9 3
36 -53 82 -168 37 -95 65 -173 63 -173 -3 0 -1 -6 4 -12 6 -7 16 -31 23 -53 7
-22 16 -45 21 -51 5 -6 6 -14 2 -17 -3 -4 -1 -7 5 -7 7 0 11 -3 10 -7 -1 -5 4
-24 11 -43 8 -19 14 -37 15 -40 4 -16 69 -180 81 -203 10 -19 11 -26 2 -20 -6
4 -4 -5 5 -19 9 -14 28 -57 42 -96 13 -38 31 -85 39 -103 8 -19 20 -47 26 -64
6 -16 16 -43 22 -60 7 -16 13 -33 13 -36 2 -12 62 -72 89 -89 l28 -18 -48 -23
c-26 -12 -72 -38 -100 -56 -29 -18 -55 -33 -58 -33 -3 0 -13 -7 -22 -15 -9 -9
-28 -24 -42 -33 -70 -44 -184 -136 -265 -214 -33 -32 -63 -58 -68 -58 -4 0 -8
-3 -8 -7 0 -5 -24 -33 -53 -64 -47 -50 -70 -77 -134 -157 l-19 -24 -2 34 c-7
98 -66 149 -233 199 -68 21 -169 52 -224 69 -55 17 -104 33 -110 34 -5 1 -44
13 -85 26 -41 13 -77 24 -80 25 -3 0 -45 13 -95 29 -49 15 -135 41 -190 58
-55 16 -108 34 -117 39 -10 5 -27 9 -37 9 -11 0 -22 4 -26 9 -3 6 -14 8 -25 6
-11 -2 -20 0 -20 6 0 5 -3 8 -7 7 -7 -2 -55 12 -345 103 -54 17 -103 32 -110
33 -7 2 -20 6 -28 9 -12 5 -182 58 -200 62 -3 1 -32 10 -65 20 -33 11 -63 20
-67 21 -5 1 -9 2 -10 4 -3 2 -17 5 -55 14 -12 2 -31 10 -43 16 -11 6 -24 9
-29 6 -19 -12 -30 23 -36 109 -3 50 -7 102 -9 117 -2 15 0 26 3 24 63 -33 131
-36 193 -8 24 10 49 26 57 35 7 10 20 17 27 17 8 0 14 4 14 9 0 5 29 28 64 51
36 23 75 50 87 61 13 11 39 30 59 42 19 11 41 27 48 34 8 7 35 27 60 45 26 17
59 41 73 52 14 12 36 28 49 36 12 8 28 21 36 28 7 6 16 12 19 12 6 0 28 16 82
60 7 6 17 10 23 10 5 0 10 4 10 8 0 4 18 19 40 32 22 14 40 28 40 33 0 4 7 7
15 7 8 0 15 4 15 8 0 4 12 15 28 24 15 9 37 25 50 35 12 10 45 34 73 53 28 19
72 52 99 73 26 20 53 37 59 37 6 0 11 3 11 8 0 4 17 18 38 32 20 14 62 44 94
68 31 23 61 42 67 42 6 0 11 4 11 9 0 10 59 51 73 51 5 0 23 -7 40 -15z m210
-2863 c-3 -12 -9 -22 -14 -22 -5 0 -3 11 3 25 13 30 20 28 11 -3z"/>
</g>
</svg>
