<?xml version="1.0" encoding="utf-8"?>
<!-- Generator: Adobe Illustrator 27.5.0, SVG Export Plug-In . SVG Version: 6.00 Build 0)  -->
<svg version="1.1" id="Layer_1" xmlns="http://www.w3.org/2000/svg" xmlns:xlink="http://www.w3.org/1999/xlink" x="0px" y="0px"
	 viewBox="0 0 841.89 595.28" style="enable-background:new 0 0 841.89 595.28;" xml:space="preserve">
<style type="text/css">
	.st0{fill:#FFFFFF;}
	.st1{fill:#1E417E;}
	.st2{fill:#AA1A2D;}
</style>
<g>
	<g>
		<path class="st0" d="M84.61,277.26h24.11c1.57,0,2.83-1.27,2.83-2.83v-1.81c0-1.29-0.88-2.42-2.13-2.75
			c-1.08-0.28-1.37-0.56-1.37-0.56c0,0-0.12-0.19-0.12-0.77V245.9h24.9c7.53,0,13.29-0.75,17.62-2.29c4.52-1.61,8.2-4.36,10.95-8.19
			c3.13-4.4,4.71-9.56,4.71-15.34c0-4.01-0.83-7.87-2.48-11.51c-1.67-3.55-4.02-6.46-7.01-8.67c-2.83-2.07-6.12-3.54-9.79-4.38
			c-3.54-0.81-8.13-1.2-14.02-1.2H84.61c-1.57,0-2.83,1.27-2.83,2.83v1.81c0,1.27,0.85,2.39,2.07,2.73c1.08,0.3,1.42,0.58,1.43,0.58
			c0.02,0.03,0.11,0.25,0.11,0.82v65.43c0,0.47-0.08,0.71-0.08,0.73c0,0-0.31,0.3-1.46,0.61c-1.23,0.34-2.08,1.46-2.08,2.73v1.81
			C81.78,275.99,83.05,277.26,84.61,277.26z M107.94,227.5v-14.76h22.92c6.12,0,8.56,0.82,9.46,1.3c0.82,0.45,1.48,1.18,2.03,2.24
			c0.61,1.17,0.9,2.42,0.9,3.82c0,1.44-0.29,2.71-0.9,3.87c-0.55,1.06-1.22,1.79-2.01,2.22c-1.13,0.6-3.7,1.31-9.49,1.31H107.94z"/>
		<path class="st0" d="M212.92,245.74l14.79,21.51c0.8,1.18,1.31,2,1.64,2.57c-1.36,0.23-2.36,1.41-2.36,2.79v1.81
			c0,1.57,1.27,2.83,2.83,2.83h27.91c1.57,0,2.83-1.27,2.83-2.83v-1.81c0-1.5-1.16-2.73-2.66-2.83c-1.14-0.07-2.06-0.43-2.81-1.08
			c-0.73-0.64-2.24-2.32-5.35-6.71l-12.51-17.8c15.59-4.03,19.02-15.09,19.02-24.04c0-4.07-0.78-7.95-2.33-11.55
			c-1.69-3.85-4.28-6.95-7.71-9.21c-2.87-1.9-6.25-3.24-10.04-3.98c-3.62-0.71-8.51-1.07-14.56-1.07H173.3
			c-1.57,0-2.83,1.27-2.83,2.83v1.81c0,1.27,0.85,2.39,2.07,2.73c1.08,0.3,1.42,0.58,1.43,0.58c0.02,0.03,0.11,0.25,0.11,0.82v65.43
			c0,0.47-0.08,0.71-0.08,0.73c0,0-0.31,0.3-1.46,0.62c-1.23,0.34-2.08,1.46-2.08,2.73v1.81c0,1.57,1.27,2.83,2.83,2.83h24.11
			c1.57,0,2.83-1.27,2.83-2.83v-1.81c0-1.29-0.88-2.42-2.13-2.75c-1.08-0.28-1.37-0.56-1.37-0.56c0,0-0.12-0.19-0.12-0.77v-22.8
			H212.92z M230.98,225.92c-1.03,0.56-2.15,0.92-3.41,1.1c-1,0.14-3.15,0.31-7.75,0.31h-23.2v-14.59h23.2c4.7,0,6.83,0.16,7.8,0.29
			c1.19,0.16,2.28,0.53,3.37,1.13c1.21,0.65,2.81,1.97,2.81,5.88C233.8,223.95,232.19,225.26,230.98,225.92z"/>
		<path class="st0" d="M274.34,266.94c8.39,7.75,19.77,11.67,33.81,11.67c18.78,0,32.53-6.77,40.86-20.12
			c4.27-6.84,6.43-14.32,6.43-22.22c0-12.85-4.52-23.49-13.43-31.63c-8.4-7.75-19.83-11.68-33.98-11.68c-0.01,0-0.02,0-0.04,0
			c-18.92,0.24-32.62,6.99-40.72,20.08c-4.23,6.84-6.37,14.48-6.37,22.71c0,5.62,1.04,11.06,3.09,16.17
			C266.34,257.74,269.82,262.79,274.34,266.94z M332.56,236.14c0,3.2-0.62,6.34-1.83,9.33c-1.38,3.35-3.38,6.22-5.96,8.52
			c-4.37,3.93-9.8,5.83-16.58,5.83c-6.79,0-12.23-1.91-16.65-5.84c-5.23-4.64-7.77-10.59-7.77-18.18c0-7.59,2.54-13.54,7.78-18.18
			c4.41-3.93,9.81-5.84,16.51-5.84c6.8,0.07,12.28,1.99,16.75,5.87C330.03,222.14,332.56,228.18,332.56,236.14z"/>
		<path class="st0" d="M361.09,269.87l1.64,0.85c0.99,0.51,2.18,0.4,3.05-0.29c0.3-0.24,0.53-0.4,0.7-0.51
			c0.42,0.16,1.16,0.47,2.41,1.05c10.31,5.08,20.91,7.65,31.53,7.65c5.93,0,11.58-0.74,16.77-2.19c7.22-2,12.67-5.18,16.2-9.46
			c3.93-4.72,5.92-10.21,5.92-16.29c0-3.85-0.85-7.53-2.53-10.93c-1.69-3.42-4.04-6.23-7-8.36c-2.76-1.94-5.96-3.46-9.5-4.52
			c-3.41-1.03-7.9-1.84-13.35-2.42l-8.89-0.9c-7.18-0.73-10.03-1.27-11.13-1.59c-3.25-0.97-3.25-2.44-3.25-3.22
			c0-1.06,0.42-2.02,1.32-3c1.06-1.16,2.44-2.02,4.18-2.61c2.76-0.89,6.03-1.33,9.72-1.33c8.42,0,15.84,2.19,22.08,6.54
			c1.59,1.07,1.96,1.71,2.03,1.86c0,0.14-0.02,0.33-0.04,0.54c-0.11,1.11,0.44,2.19,1.41,2.75l1.58,0.91
			c0.67,0.39,1.48,0.47,2.22,0.25c0.74-0.22,1.36-0.74,1.71-1.43l9.23-18.19c0.7-1.37,0.17-3.05-1.19-3.78l-1.58-0.85
			c-1.01-0.55-2.26-0.42-3.15,0.31c-0.5,0.42-0.82,0.58-0.93,0.63c-0.32-0.08-1.14-0.33-2.95-1.06c-6.49-2.74-12.01-4.65-16.41-5.69
			c-4.45-1.05-9.32-1.58-14.46-1.58c-12.47,0-22.04,3.1-28.44,9.22c-5.05,4.8-7.62,10.94-7.62,18.25c0,4.46,1.02,8.48,3.04,11.95
			c2.24,3.88,5.36,6.83,9.28,8.76c2.61,1.31,5.26,2.27,7.89,2.86c2.55,0.58,6.72,1.16,12.73,1.78l8.7,0.9
			c6.94,0.76,9.78,1.46,10.92,1.91c2.06,0.82,2.34,1.85,2.34,2.84c0,1.08-0.39,2.12-1.19,3.19c-0.9,1.2-2.1,2.15-3.65,2.9
			c-3.15,1.5-7.06,2.27-11.63,2.27c-4.3,0-8.93-0.76-13.77-2.25c-4.72-1.46-8.19-3.16-10.34-5.08c-1.48-1.3-1.48-2.26-1.48-2.57
			v-0.74c0-1.09-0.62-2.08-1.6-2.55l-1.64-0.79c-0.69-0.33-1.49-0.37-2.21-0.11c-0.72,0.26-1.3,0.81-1.61,1.51l-8.38,18.96
			C359.19,267.58,359.76,269.18,361.09,269.87z"/>
		<path class="st0" d="M448.19,277.26h70.18c0.47,0,0.71,0.08,0.73,0.08c0,0,0.3,0.32,0.62,1.47c0.34,1.23,1.46,2.08,2.73,2.08h1.81
			c1.57,0,2.83-1.27,2.83-2.83v-19.98c0-1.57-1.27-2.83-2.83-2.83h-1.81c-1.27,0-2.39,0.85-2.73,2.08
			c-0.31,1.11-0.59,1.44-0.59,1.44c-0.05,0.03-0.29,0.11-0.75,0.11h-46.86v-15.5h28.52c0.45,0,0.67,0.07,0.7,0.08
			c0,0,0.32,0.31,0.65,1.48c0.35,1.22,1.46,2.05,2.72,2.05h1.81c1.57,0,2.83-1.27,2.83-2.83v-19.53c0-1.57-1.27-2.83-2.83-2.83
			h-1.81c-1.27,0-2.39,0.85-2.73,2.08c-0.31,1.11-0.59,1.44-0.59,1.44c-0.05,0.03-0.29,0.11-0.75,0.11h-28.52v-12.67h45.5
			c0.46,0,0.69,0.08,0.71,0.08c0,0,0.3,0.31,0.63,1.47c0.34,1.22,1.46,2.07,2.73,2.07h1.81c1.57,0,2.83-1.27,2.83-2.83v-19.98
			c0-1.57-1.27-2.83-2.83-2.83h-1.81c-1.27,0-2.38,0.84-2.73,2.06c-0.32,1.12-0.61,1.45-0.61,1.45c-0.05,0.03-0.28,0.1-0.74,0.1
			h-68.82c-1.57,0-2.83,1.27-2.83,2.83v1.81c0,1.27,0.85,2.39,2.08,2.73c1.08,0.3,1.42,0.58,1.43,0.58
			c0.02,0.03,0.11,0.25,0.11,0.82v65.37c0,0.56-0.09,0.78-0.09,0.79c-0.05,0.04-0.39,0.32-1.46,0.61c-1.23,0.34-2.08,1.46-2.08,2.73
			v1.81C445.36,275.99,446.63,277.26,448.19,277.26z"/>
		<path class="st0" d="M595.92,223.46l1.58,0.91c0.67,0.39,1.48,0.47,2.22,0.25c0.74-0.22,1.36-0.74,1.71-1.43l9.23-18.19
			c0.7-1.37,0.17-3.05-1.18-3.78l-1.58-0.85c-1.01-0.55-2.26-0.42-3.15,0.31c-0.51,0.42-0.82,0.58-0.94,0.63
			c-0.32-0.08-1.14-0.33-2.95-1.06c-6.49-2.74-12.01-4.65-16.41-5.69c-4.45-1.05-9.32-1.58-14.46-1.58
			c-12.47,0-22.04,3.1-28.44,9.22c-5.05,4.8-7.62,10.94-7.62,18.25c0,4.46,1.02,8.48,3.04,11.95c2.24,3.88,5.36,6.83,9.28,8.76
			c2.61,1.31,5.26,2.27,7.89,2.86c2.55,0.58,6.71,1.16,12.73,1.78l8.7,0.9c6.94,0.76,9.78,1.46,10.92,1.91
			c2.06,0.82,2.34,1.85,2.34,2.84c0,1.08-0.39,2.12-1.19,3.19c-0.9,1.2-2.1,2.15-3.65,2.9c-3.15,1.5-7.06,2.27-11.62,2.27
			c-4.3,0-8.93-0.76-13.77-2.25c-4.72-1.46-8.19-3.16-10.34-5.08c-1.48-1.3-1.48-2.26-1.48-2.57v-0.74c0-1.09-0.62-2.08-1.6-2.55
			l-1.64-0.79c-0.69-0.33-1.49-0.37-2.21-0.11c-0.72,0.26-1.3,0.81-1.61,1.51l-8.38,18.96c-0.61,1.37-0.04,2.98,1.29,3.66l1.64,0.85
			c0.99,0.51,2.18,0.4,3.05-0.29c0.3-0.24,0.53-0.4,0.7-0.51c0.42,0.16,1.16,0.47,2.41,1.05c10.31,5.08,20.91,7.65,31.53,7.65
			c5.93,0,11.58-0.74,16.77-2.19c7.22-2,12.67-5.18,16.2-9.46c3.93-4.72,5.92-10.21,5.92-16.29c0-3.85-0.85-7.53-2.53-10.93
			c-1.69-3.42-4.04-6.23-7-8.36c-2.76-1.94-5.96-3.46-9.5-4.52c-3.41-1.03-7.9-1.84-13.35-2.42l-8.89-0.9
			c-7.18-0.73-10.03-1.27-11.13-1.59c-3.24-0.97-3.24-2.44-3.24-3.22c0-1.06,0.42-2.02,1.32-3c1.06-1.16,2.44-2.02,4.18-2.61
			c2.76-0.89,6.03-1.33,9.72-1.33c8.42,0,15.84,2.19,22.08,6.54c1.59,1.07,1.96,1.71,2.03,1.86c0,0.14-0.02,0.33-0.04,0.54
			C594.39,221.82,594.95,222.9,595.92,223.46z"/>
		<path class="st0" d="M616.12,269.87l1.64,0.85c0.98,0.51,2.18,0.4,3.05-0.29c0.3-0.24,0.53-0.4,0.7-0.51
			c0.42,0.16,1.16,0.47,2.41,1.05c10.31,5.08,20.91,7.65,31.53,7.65c5.93,0,11.58-0.74,16.77-2.19c7.22-2,12.67-5.18,16.2-9.46
			c3.13-3.76,5.01-8.01,5.65-12.66c0.52,0.64,1.3,1.05,2.19,1.05h1.81c1.29,0,2.42-0.88,2.75-2.13c0.28-1.08,0.56-1.37,0.56-1.37
			c0.01,0,0.19-0.12,0.77-0.12h13.92c0.56,0,0.78,0.1,0.79,0.08c0.04,0.05,0.32,0.39,0.61,1.46c0.34,1.23,1.46,2.08,2.73,2.08h1.81
			c1.57,0,2.83-1.27,2.83-2.83V233c0-1.57-1.27-2.83-2.83-2.83h-1.38c-1.34,0-2.5,0.94-2.77,2.25c-0.19,0.9-0.4,1.23-0.4,1.24
			c-0.05,0.02-0.3,0.13-0.92,0.13h-14.29c-0.56,0-0.83-0.1-0.87-0.14c0,0-0.29-0.29-0.57-1.37c-0.33-1.25-1.45-2.12-2.74-2.12h-1.81
			c-1.57,0-2.83,1.27-2.83,2.83v10.97c-0.41-1.45-0.94-2.86-1.61-4.22c-1.69-3.42-4.04-6.23-7-8.36c-2.76-1.94-5.96-3.46-9.5-4.52
			c-3.42-1.03-7.9-1.84-13.35-2.42l-8.89-0.9c-7.18-0.73-10.03-1.27-11.13-1.59c-3.25-0.98-3.25-2.44-3.25-3.22
			c0-1.05,0.43-2.03,1.32-3c1.06-1.16,2.44-2.02,4.18-2.61c2.76-0.89,6.03-1.33,9.72-1.33c8.42,0,15.84,2.19,22.08,6.54
			c1.59,1.07,1.96,1.71,2.03,1.86c0,0.15-0.02,0.33-0.04,0.55c-0.11,1.11,0.44,2.18,1.41,2.74l1.58,0.91
			c0.67,0.39,1.48,0.47,2.22,0.25c0.74-0.22,1.36-0.74,1.71-1.43l9.23-18.19c0.7-1.37,0.17-3.05-1.19-3.78l-1.58-0.85
			c-1.01-0.55-2.26-0.42-3.15,0.31c-0.5,0.42-0.82,0.58-0.93,0.63c-0.32-0.08-1.14-0.33-2.95-1.06c-6.49-2.74-12.01-4.65-16.41-5.69
			c-4.46-1.05-9.32-1.58-14.46-1.58c-12.47,0-22.04,3.1-28.44,9.22c-5.05,4.8-7.62,10.95-7.62,18.25c0,4.45,1.02,8.48,3.04,11.95
			c2.24,3.88,5.36,6.83,9.28,8.76c2.61,1.31,5.26,2.27,7.89,2.86c2.55,0.58,6.71,1.16,12.73,1.78l8.7,0.9
			c6.94,0.76,9.78,1.46,10.92,1.91c2.06,0.82,2.34,1.85,2.34,2.84c0,1.08-0.39,2.12-1.19,3.19c-0.9,1.2-2.1,2.15-3.65,2.9
			c-3.15,1.5-7.06,2.27-11.63,2.27c-4.3,0-8.93-0.76-13.77-2.25c-4.72-1.46-8.19-3.16-10.34-5.08c-1.48-1.3-1.48-2.26-1.48-2.57
			v-0.74c0-1.09-0.62-2.08-1.6-2.55l-1.64-0.79c-0.69-0.33-1.49-0.37-2.21-0.11c-0.72,0.26-1.3,0.81-1.61,1.51l-8.38,18.96
			C614.22,267.58,614.79,269.18,616.12,269.87z"/>
		<path class="st0" d="M286.38,332.26l1.58,0.91c0.67,0.38,1.48,0.48,2.22,0.25c0.74-0.22,1.36-0.74,1.71-1.43l9.23-18.19
			c0.7-1.37,0.17-3.05-1.18-3.78l-1.58-0.85c-1.01-0.55-2.26-0.43-3.15,0.31c-0.5,0.42-0.82,0.58-0.93,0.63
			c-0.32-0.08-1.14-0.34-2.95-1.06c-6.49-2.74-12.01-4.65-16.41-5.69c-4.46-1.05-9.32-1.58-14.46-1.58
			c-12.47,0-22.04,3.1-28.44,9.22c-5.05,4.8-7.62,10.94-7.62,18.25c0,4.46,1.02,8.48,3.04,11.95c2.24,3.88,5.36,6.83,9.28,8.76
			c2.6,1.3,5.26,2.27,7.89,2.87c2.55,0.58,6.71,1.16,12.73,1.78l8.7,0.9c6.94,0.76,9.78,1.46,10.92,1.91
			c2.06,0.82,2.34,1.85,2.34,2.84c0,1.08-0.39,2.12-1.19,3.19c-0.9,1.21-2.1,2.15-3.65,2.9c-3.15,1.5-7.06,2.26-11.63,2.26
			c-4.3,0-8.93-0.76-13.77-2.25c-4.72-1.46-8.19-3.16-10.33-5.08c-1.48-1.3-1.48-2.26-1.48-2.57v-0.74c0-1.09-0.62-2.08-1.6-2.55
			l-1.64-0.79c-0.69-0.33-1.49-0.37-2.21-0.11c-0.72,0.26-1.3,0.81-1.61,1.51l-8.38,18.96c-0.61,1.37-0.04,2.98,1.29,3.66l1.64,0.85
			c0.99,0.51,2.18,0.4,3.05-0.29c0.3-0.24,0.53-0.4,0.7-0.5c0.42,0.16,1.16,0.47,2.41,1.05c10.31,5.08,20.92,7.65,31.53,7.65
			c5.93,0,11.58-0.74,16.77-2.2c7.22-2,12.67-5.18,16.2-9.46c3.93-4.72,5.92-10.2,5.92-16.29c0-3.86-0.85-7.53-2.53-10.93
			c-1.69-3.42-4.04-6.23-7-8.36c-2.77-1.94-5.96-3.46-9.5-4.52c-3.41-1.03-7.9-1.84-13.35-2.42l-8.89-0.9
			c-7.17-0.72-10.02-1.27-11.13-1.59c-3.25-0.97-3.25-2.44-3.25-3.22c0-1.05,0.43-2.03,1.32-3c1.06-1.16,2.44-2.02,4.18-2.61
			c2.76-0.89,6.03-1.33,9.72-1.33c8.42,0,15.84,2.19,22.08,6.54c1.59,1.07,1.96,1.71,2.03,1.86c0,0.14-0.02,0.33-0.04,0.55
			C284.86,330.63,285.41,331.71,286.38,332.26z"/>
		<path class="st0" d="M386.27,364.04h-1.81c-1.27,0-2.39,0.85-2.73,2.08c-0.31,1.1-0.59,1.44-0.59,1.44
			c-0.06,0.03-0.29,0.11-0.76,0.11h-46.86v-15.5h28.52c0.45,0,0.67,0.07,0.7,0.09c0,0,0.32,0.31,0.65,1.48
			c0.35,1.22,1.46,2.06,2.73,2.06h1.81c1.57,0,2.83-1.27,2.83-2.83v-19.53c0-1.57-1.27-2.83-2.83-2.83h-1.81
			c-1.27,0-2.39,0.85-2.73,2.08c-0.31,1.1-0.59,1.43-0.59,1.44c-0.06,0.03-0.29,0.11-0.76,0.11h-28.52v-12.67h45.5
			c0.46,0,0.69,0.08,0.71,0.08c0,0,0.31,0.31,0.63,1.47c0.34,1.22,1.46,2.07,2.73,2.07h1.81c1.57,0,2.83-1.27,2.83-2.83v-19.98
			c0-1.57-1.27-2.83-2.83-2.83h-1.81c-1.27,0-2.38,0.84-2.73,2.07c-0.32,1.12-0.61,1.45-0.61,1.45c-0.05,0.03-0.28,0.1-0.74,0.1
			H310.2c-1.57,0-2.83,1.27-2.83,2.83v1.81c0,1.27,0.85,2.39,2.07,2.73c1.08,0.3,1.42,0.58,1.43,0.58c0.02,0.03,0.11,0.25,0.11,0.82
			v65.37c0,0.56-0.09,0.78-0.09,0.79c-0.05,0.04-0.39,0.32-1.46,0.61c-1.23,0.34-2.08,1.46-2.08,2.73v1.81
			c0,1.57,1.27,2.83,2.83,2.83h70.18c0.47,0,0.71,0.08,0.73,0.08c0,0,0.3,0.32,0.62,1.47c0.34,1.23,1.46,2.08,2.73,2.08h1.81
			c1.57,0,2.83-1.27,2.83-2.83v-19.98C389.1,365.31,387.83,364.04,386.27,364.04z"/>
		<path class="st0" d="M482.89,378.59c-1.14-0.07-2.06-0.43-2.81-1.08c-0.73-0.64-2.24-2.32-5.35-6.71l-12.51-17.8
			c15.59-4.03,19.02-15.09,19.02-24.04c0-4.07-0.78-7.95-2.33-11.55c-1.69-3.85-4.28-6.95-7.71-9.21c-2.87-1.9-6.25-3.24-10.04-3.98
			c-3.62-0.71-8.52-1.07-14.55-1.07h-48.33c-1.57,0-2.83,1.27-2.83,2.83v1.81c0,1.27,0.85,2.39,2.07,2.73
			c1.08,0.3,1.42,0.58,1.43,0.58c0.01,0.03,0.11,0.25,0.11,0.82v65.43c0,0.47-0.08,0.71-0.08,0.73c0,0-0.31,0.3-1.46,0.62
			c-1.23,0.34-2.08,1.46-2.08,2.73v1.81c0,1.57,1.27,2.83,2.83,2.83h24.11c1.57,0,2.83-1.27,2.83-2.83v-1.81
			c0-1.29-0.88-2.42-2.13-2.75c-1.08-0.28-1.37-0.56-1.37-0.56c0,0-0.12-0.19-0.12-0.77v-22.8h16.3l14.79,21.51
			c0.8,1.18,1.31,2,1.64,2.57c-1.36,0.23-2.36,1.41-2.36,2.79v1.81c0,1.57,1.27,2.83,2.83,2.83h27.91c1.57,0,2.83-1.27,2.83-2.83
			v-1.81C485.54,379.92,484.38,378.68,482.89,378.59z M452.54,335.83c-1,0.14-3.15,0.31-7.75,0.31h-23.2v-14.59h23.2
			c4.71,0,6.84,0.15,7.8,0.28c1.19,0.16,2.28,0.53,3.37,1.13c1.21,0.65,2.81,1.97,2.81,5.88c0,3.91-1.6,5.23-2.82,5.88
			C454.93,335.28,453.78,335.65,452.54,335.83z"/>
		<path class="st0" d="M571.74,303.14h-26.45c-1.57,0-2.83,1.27-2.83,2.83v1.81c0,1.35,0.96,2.52,2.29,2.78
			c0.88,0.17,1.29,0.38,1.44,0.49c-0.02,0.34-0.18,1.28-1.05,3.2l-17.92,39.64l-17.94-39.63c-0.86-1.91-1.02-2.85-1.04-3.21
			c0.16-0.1,0.56-0.31,1.44-0.49c1.33-0.26,2.29-1.43,2.29-2.78v-1.81c0-1.57-1.27-2.83-2.83-2.83h-27.44
			c-1.57,0-2.83,1.27-2.83,2.83v1.81c0,1.42,1.05,2.62,2.45,2.81c1.35,0.18,1.72,0.5,1.72,0.5c0.12,0.14,0.81,1.05,2.88,5.53
			l26.79,57.78c1.18,2.55,1.4,3.44,1.44,3.64c-0.01,0.14-0.03,0.22-0.03,0.22c0,0-0.23,0.23-1.1,0.35c-1.4,0.2-2.43,1.4-2.43,2.81
			v1.81c0,1.57,1.27,2.83,2.83,2.83h26.62c1.57,0,2.83-1.27,2.83-2.83v-1.81c0-1.41-1.04-2.61-2.43-2.81
			c-0.83-0.12-1.09-0.32-1.1-0.32c0-0.01-0.03-0.08-0.03-0.17c0.01-0.08,0.14-0.89,1.44-3.71l26.79-57.79
			c2.07-4.48,2.76-5.39,2.87-5.51c0,0,0.36-0.32,1.74-0.51c1.4-0.19,2.45-1.39,2.45-2.81v-1.81
			C574.57,304.41,573.3,303.14,571.74,303.14z"/>
		<path class="st0" d="M602.41,303.14H578.3c-1.57,0-2.83,1.27-2.83,2.83v1.81c0,1.27,0.85,2.39,2.08,2.73
			c1.09,0.3,1.43,0.59,1.44,0.59c0.03,0.06,0.11,0.29,0.11,0.76v65.43c0,0.56-0.09,0.78-0.08,0.79c-0.05,0.04-0.39,0.32-1.46,0.61
			c-1.23,0.34-2.08,1.46-2.08,2.73v1.81c0,1.57,1.27,2.83,2.83,2.83h24.11c1.57,0,2.83-1.27,2.83-2.83v-1.81
			c0-1.29-0.88-2.42-2.13-2.75c-1.07-0.28-1.37-0.56-1.37-0.56c0-0.01-0.12-0.22-0.12-0.83v-65.43c0-0.58,0.11-0.78,0.1-0.78
			c0.02-0.02,0.34-0.29,1.37-0.54c1.26-0.31,2.15-1.45,2.15-2.75v-1.81C605.25,304.41,603.98,303.14,602.41,303.14z"/>
		<path class="st0" d="M693.51,355.11c-0.42-0.63-1.09-1.07-1.84-1.21c-0.75-0.14-1.53,0.03-2.15,0.47l-1.53,1.08
			c-0.86,0.61-1.32,1.64-1.18,2.69c0.06,0.45,0.09,0.82,0.09,1.1c0,0.12,0,0.48-0.61,1.1c-0.52,0.53-1.7,1.47-4.41,3
			c-6.21,3.51-12.89,5.29-19.83,5.29c-8.1,0-14.59-2-19.29-5.96c-5.56-4.64-8.26-10.55-8.26-18.06c0-7.52,2.7-13.42,8.27-18.07
			c4.7-3.95,11.18-5.95,19.29-5.95c6.94,0,13.62,1.77,19.84,5.27c2.71,1.52,3.89,2.46,4.4,2.98c0.6,0.61,0.6,0.97,0.6,1.09
			c0,0.2-0.02,0.56-0.09,1.17c-0.13,1.07,0.35,2.12,1.24,2.71l1.53,1.02c1.3,0.86,3.06,0.51,3.93-0.79l10.75-16.13
			c0.86-1.29,0.53-3.02-0.74-3.9l-1.47-1.02c-1.09-0.76-2.57-0.65-3.54,0.25c-0.33,0.31-0.58,0.5-0.74,0.61
			c-0.54-0.22-1.75-0.77-4.24-2.18c-6.73-3.87-12.46-6.51-17.03-7.85c-4.62-1.35-10.18-2.04-16.53-2.04
			c-17.47,0-30.77,5.6-39.52,16.64c-5.85,7.39-8.82,16.19-8.82,26.16c0,7.31,1.66,14.1,4.91,20.17c2.83,5.34,6.77,9.87,11.69,13.46
			c8.27,6.11,18.93,9.21,31.68,9.21c6.35,0,11.95-0.7,16.62-2.07c4.63-1.36,10.35-4,17.01-7.84c2.47-1.43,3.68-2,4.23-2.23
			c0.16,0.11,0.41,0.3,0.74,0.61c0.97,0.91,2.45,1.01,3.55,0.25l1.47-1.02c1.27-0.88,1.6-2.62,0.74-3.9L693.51,355.11z"/>
		<path class="st0" d="M789.58,364.04h-1.81c-1.27,0-2.39,0.85-2.73,2.08c-0.31,1.1-0.59,1.44-0.59,1.44
			c-0.06,0.03-0.29,0.11-0.76,0.11h-46.86v-15.5h28.52c0.45,0,0.67,0.07,0.7,0.08c0,0,0.32,0.31,0.65,1.48
			c0.35,1.22,1.46,2.05,2.73,2.05h1.81c1.57,0,2.83-1.27,2.83-2.83v-19.53c0-1.57-1.27-2.83-2.83-2.83h-1.81
			c-1.27,0-2.39,0.85-2.73,2.08c-0.31,1.1-0.59,1.43-0.59,1.44c-0.05,0.03-0.29,0.11-0.76,0.11h-28.52v-12.67h45.5
			c0.46,0,0.69,0.08,0.71,0.08c0,0,0.31,0.31,0.63,1.47c0.34,1.22,1.46,2.07,2.73,2.07h1.81c1.57,0,2.83-1.27,2.83-2.83v-19.98
			c0-1.57-1.27-2.83-2.83-2.83h-1.81c-1.27,0-2.38,0.84-2.73,2.06c-0.32,1.12-0.61,1.45-0.61,1.45c-0.05,0.03-0.28,0.1-0.74,0.1
			h-68.82c-1.57,0-2.83,1.27-2.83,2.83v1.81c0,1.27,0.85,2.39,2.08,2.73c1.08,0.3,1.42,0.58,1.43,0.58
			c0.01,0.03,0.11,0.25,0.11,0.82v65.37c0,0.56-0.09,0.78-0.09,0.79c-0.04,0.04-0.39,0.31-1.46,0.61c-1.23,0.34-2.08,1.46-2.08,2.73
			v1.81c0,1.57,1.27,2.83,2.83,2.83h70.18c0.47,0,0.71,0.08,0.73,0.08c0,0,0.3,0.32,0.62,1.47c0.34,1.23,1.46,2.08,2.73,2.08h1.81
			c1.57,0,2.83-1.27,2.83-2.83v-19.98C792.42,365.31,791.15,364.04,789.58,364.04z"/>
		<path class="st0" d="M168.41,339.03c-0.66-0.05-1.33-0.08-1.99-0.1c0.46-0.22,0.87-0.56,1.16-1.01c0.55-0.86,0.6-1.94,0.13-2.84
			l-9.66-18.52c3.19-3.76,5.13-8.43,5.53-13.35c0.51-6.29-1.46-12.4-5.55-17.21c-4.09-4.81-9.8-7.74-16.09-8.25
			c-12.98-1.05-24.41,8.66-25.46,21.64c-0.25,3.09,0.11,6.21,1.06,9.15l-16.95,10.14c-0.43,0.26-0.77,0.63-1.01,1.06
			c-4.74-4.65-11.05-7.74-18.11-8.31c-7.81-0.63-15.41,1.81-21.38,6.89c-5.97,5.08-9.61,12.18-10.24,19.99
			c-0.63,7.81,1.81,15.41,6.89,21.38c5.08,5.97,12.18,9.61,19.99,10.25c9.5,0.78,18.56-3.01,24.67-10.17l27.54,10.94
			c0.34,0.13,0.69,0.2,1.05,0.2c0.51,0,1.02-0.14,1.47-0.41c0.76-0.46,1.26-1.25,1.35-2.13c0.28-2.71,1.16-5.79,2.34-8.55
			c-1.15,2.95-1.88,6.09-2.14,9.34c-0.71,8.75,2.03,17.26,7.72,23.95s13.64,10.77,22.39,11.48c0.9,0.07,1.79,0.11,2.68,0.11
			c16.93,0,31.35-13.05,32.74-30.22c0.71-8.75-2.03-17.26-7.72-23.95S177.17,339.74,168.41,339.03z M139.35,351.19
			c-0.26-0.93-0.97-1.67-1.9-1.96l-29.03-8.95c-0.02-1.15-0.11-2.29-0.26-3.41c0.2,0.13,0.41,0.25,0.64,0.33
			c0.87,0.31,1.84,0.17,2.59-0.38l19.2-13.85c2.38,1.04,4.9,1.67,7.51,1.88c1.6,0.13,3.2,0.1,4.79-0.1l6.17,16.06
			c0.31,0.8,0.96,1.41,1.77,1.68c-2.26,1.15-4.4,2.57-6.38,4.26c-1.9,1.61-3.58,3.41-5.04,5.36
			C139.45,351.8,139.44,351.49,139.35,351.19z"/>
	</g>
	<g>
		<g>
			<g>
				<path class="st1" d="M105.1,243.07v25.47c0,1.13,0.27,2.01,0.82,2.63c0.55,0.62,1.48,1.1,2.8,1.44v1.81H84.61v-1.81
					c1.36-0.38,2.3-0.87,2.83-1.47c0.53-0.6,0.79-1.47,0.79-2.6v-65.43c0-1.17-0.26-2.06-0.79-2.66c-0.53-0.6-1.47-1.09-2.83-1.47
					v-1.81h48.22c5.62,0,10.08,0.38,13.38,1.13c3.3,0.76,6.22,2.06,8.75,3.9c2.6,1.93,4.64,4.45,6.11,7.58
					c1.47,3.25,2.21,6.68,2.21,10.3c0,5.21-1.4,9.77-4.19,13.7c-2.42,3.36-5.61,5.74-9.59,7.16c-3.98,1.42-9.54,2.12-16.67,2.12
					H105.1z M105.1,230.34h25.75c5.13,0,8.73-0.55,10.81-1.64c1.32-0.72,2.39-1.86,3.2-3.42c0.81-1.56,1.22-3.29,1.22-5.18
					c0-1.85-0.41-3.56-1.22-5.12c-0.81-1.57-1.88-2.71-3.2-3.43c-2.04-1.09-5.64-1.64-10.81-1.64H105.1V230.34z"/>
				<path class="st1" d="M193.79,242.9v25.64c0,1.13,0.27,2.01,0.82,2.63c0.55,0.62,1.48,1.1,2.8,1.44v1.81H173.3v-1.81
					c1.36-0.38,2.3-0.87,2.83-1.47c0.53-0.6,0.79-1.47,0.79-2.6v-65.43c0-1.17-0.26-2.06-0.79-2.66c-0.53-0.6-1.47-1.09-2.83-1.47
					v-1.81h48.33c5.89,0,10.56,0.34,14.01,1.02c3.45,0.68,6.46,1.87,9.03,3.56c2.98,1.96,5.21,4.62,6.68,7.98
					c1.4,3.24,2.09,6.72,2.09,10.41c0,12.6-7,19.98-21,22.13l15,21.34c2.64,3.74,4.57,6.14,5.8,7.22c1.23,1.08,2.73,1.67,4.5,1.78
					v1.81h-27.91v-1.81c1.92-0.3,2.88-0.98,2.88-2.04c0-0.68-0.89-2.32-2.66-4.92l-15.65-22.75H193.79z M193.79,230.17h26.03
					c3.85,0,6.56-0.11,8.15-0.34c1.58-0.23,3.04-0.7,4.36-1.41c2.87-1.55,4.3-4.34,4.3-8.38c0-4.04-1.43-6.83-4.3-8.38
					c-1.36-0.75-2.8-1.24-4.33-1.44c-1.53-0.21-4.25-0.31-8.18-0.31h-26.03V230.17z"/>
				<path class="st1" d="M308.03,195.81c13.48,0,24.16,3.64,32.05,10.92c8.34,7.62,12.52,17.47,12.52,29.54c0,7.4-2,14.3-6,20.71
					c-7.82,12.53-20.63,18.79-38.45,18.79c-13.37,0-23.99-3.64-31.88-10.92c-4.23-3.89-7.44-8.55-9.63-13.98
					c-1.93-4.79-2.89-9.83-2.89-15.11c0-7.73,1.98-14.81,5.95-21.22C277.28,202.28,290.06,196.04,308.03,195.81z M308.09,208.94
					c-7.37,0-13.5,2.19-18.41,6.56c-5.82,5.16-8.72,11.93-8.72,20.3s2.91,15.13,8.72,20.3c4.91,4.37,11.09,6.56,18.53,6.56
					c7.44,0,13.6-2.19,18.47-6.56c2.91-2.6,5.14-5.79,6.68-9.56c1.36-3.35,2.04-6.82,2.04-10.4c0-8.75-2.91-15.62-8.72-20.64
					C321.72,211.2,315.53,209.02,308.09,208.94z"/>
				<path class="st1" d="M436.59,203.71l-9.23,18.19l-1.58-0.91c0.04-0.38,0.06-0.68,0.06-0.91c0-1.28-1.09-2.66-3.28-4.13
					c-6.72-4.68-14.6-7.02-23.66-7.02c-4,0-7.53,0.49-10.58,1.47c-2.23,0.75-4.03,1.89-5.41,3.39c-1.38,1.51-2.07,3.15-2.07,4.92
					c0,2.9,1.75,4.88,5.26,5.94c1.81,0.53,5.7,1.09,11.66,1.7l8.89,0.9c5.28,0.57,9.56,1.34,12.82,2.32
					c3.26,0.98,6.16,2.36,8.69,4.13c2.57,1.85,4.59,4.28,6.08,7.29c1.49,3.02,2.24,6.24,2.24,9.67c0,5.43-1.75,10.26-5.26,14.48
					c-3.17,3.85-8.09,6.69-14.77,8.54c-4.98,1.39-10.32,2.09-16.02,2.09c-10.22,0-20.32-2.45-30.28-7.36
					c-2.11-0.98-3.38-1.47-3.79-1.47c-0.49,0-1.26,0.42-2.32,1.24l-1.64-0.85l8.38-18.96l1.64,0.79c0,0.34,0,0.59,0,0.74
					c0,1.7,0.81,3.26,2.43,4.7c2.45,2.19,6.24,4.08,11.38,5.66c5.13,1.58,10,2.38,14.6,2.38c5.02,0,9.3-0.85,12.85-2.54
					c1.96-0.94,3.53-2.19,4.7-3.76c1.17-1.56,1.75-3.19,1.75-4.89c0-2.56-1.38-4.39-4.13-5.48c-1.92-0.75-5.81-1.45-11.66-2.09
					l-8.72-0.9c-5.85-0.6-9.98-1.18-12.39-1.73c-2.42-0.55-4.83-1.42-7.25-2.63c-3.43-1.7-6.13-4.25-8.09-7.65
					c-1.77-3.06-2.66-6.57-2.66-10.54c0-6.53,2.24-11.93,6.74-16.2c5.89-5.63,14.72-8.44,26.49-8.44c4.94,0,9.55,0.5,13.81,1.51
					c4.26,1,9.58,2.85,15.96,5.54c2.19,0.87,3.53,1.31,4.02,1.31c0.79,0,1.72-0.44,2.77-1.31L436.59,203.71z"/>
				<path class="st1" d="M468.68,240.52v21.17h49.69c1.13,0,2-0.26,2.6-0.79c0.6-0.53,1.09-1.47,1.47-2.83h1.81v19.98h-1.81
					c-0.38-1.36-0.87-2.3-1.47-2.83c-0.6-0.53-1.47-0.79-2.6-0.79h-70.18v-1.81c1.36-0.38,2.3-0.87,2.83-1.47
					c0.53-0.6,0.79-1.49,0.79-2.66v-65.37c0-1.17-0.26-2.06-0.79-2.66c-0.53-0.6-1.47-1.09-2.83-1.47v-1.81h68.82
					c1.13,0,2-0.27,2.6-0.81c0.6-0.54,1.09-1.48,1.47-2.82h1.81v19.98h-1.81c-0.38-1.34-0.87-2.28-1.47-2.82
					c-0.6-0.54-1.47-0.8-2.6-0.8h-48.33v18.34h31.35c1.13,0,2-0.26,2.6-0.79c0.6-0.53,1.09-1.47,1.47-2.83h1.81v19.53h-1.81
					c-0.38-1.32-0.87-2.25-1.47-2.8c-0.6-0.55-1.47-0.82-2.6-0.82H468.68z"/>
				<path class="st1" d="M608.14,203.71l-9.23,18.19l-1.58-0.91c0.04-0.38,0.06-0.68,0.06-0.91c0-1.28-1.09-2.66-3.28-4.13
					c-6.72-4.68-14.6-7.02-23.66-7.02c-4,0-7.53,0.49-10.58,1.47c-2.23,0.75-4.03,1.89-5.41,3.39c-1.38,1.51-2.07,3.15-2.07,4.92
					c0,2.9,1.75,4.88,5.26,5.94c1.81,0.53,5.7,1.09,11.66,1.7l8.89,0.9c5.28,0.57,9.56,1.34,12.82,2.32
					c3.26,0.98,6.16,2.36,8.69,4.13c2.57,1.85,4.59,4.28,6.08,7.29c1.49,3.02,2.24,6.24,2.24,9.67c0,5.43-1.75,10.26-5.26,14.48
					c-3.17,3.85-8.09,6.69-14.77,8.54c-4.98,1.39-10.32,2.09-16.02,2.09c-10.22,0-20.32-2.45-30.28-7.36
					c-2.11-0.98-3.38-1.47-3.79-1.47c-0.49,0-1.26,0.42-2.32,1.24l-1.64-0.85l8.38-18.96l1.64,0.79c0,0.34,0,0.59,0,0.74
					c0,1.7,0.81,3.26,2.43,4.7c2.45,2.19,6.24,4.08,11.38,5.66c5.13,1.58,10,2.38,14.6,2.38c5.02,0,9.3-0.85,12.85-2.54
					c1.96-0.94,3.53-2.19,4.7-3.76c1.17-1.56,1.75-3.19,1.75-4.89c0-2.56-1.38-4.39-4.13-5.48c-1.92-0.75-5.81-1.45-11.66-2.09
					l-8.72-0.9c-5.85-0.6-9.98-1.18-12.39-1.73c-2.42-0.55-4.83-1.42-7.24-2.63c-3.43-1.7-6.13-4.25-8.09-7.65
					c-1.77-3.06-2.66-6.57-2.66-10.54c0-6.53,2.24-11.93,6.74-16.2c5.89-5.63,14.72-8.44,26.49-8.44c4.94,0,9.55,0.5,13.81,1.51
					c4.26,1,9.58,2.85,15.96,5.54c2.19,0.87,3.53,1.31,4.02,1.31c0.79,0,1.72-0.44,2.77-1.31L608.14,203.71z"/>
				<path class="st1" d="M691.62,203.71l-9.23,18.19l-1.58-0.91c0.04-0.38,0.06-0.68,0.06-0.91c0-1.28-1.09-2.66-3.28-4.13
					c-6.72-4.68-14.6-7.02-23.66-7.02c-4,0-7.53,0.49-10.58,1.47c-2.23,0.75-4.03,1.89-5.41,3.39c-1.38,1.51-2.07,3.15-2.07,4.92
					c0,2.9,1.75,4.88,5.26,5.94c1.81,0.53,5.7,1.09,11.66,1.7l8.89,0.9c5.28,0.57,9.56,1.34,12.82,2.32
					c3.26,0.98,6.16,2.36,8.69,4.13c2.57,1.85,4.59,4.28,6.08,7.29c1.49,3.02,2.24,6.24,2.24,9.67c0,5.43-1.75,10.26-5.26,14.48
					c-3.17,3.85-8.09,6.69-14.77,8.54c-4.98,1.39-10.32,2.09-16.02,2.09c-10.22,0-20.32-2.45-30.28-7.36
					c-2.11-0.98-3.38-1.47-3.79-1.47c-0.49,0-1.26,0.42-2.32,1.24l-1.64-0.85l8.38-18.96l1.64,0.79c0,0.34,0,0.59,0,0.74
					c0,1.7,0.81,3.26,2.43,4.7c2.45,2.19,6.24,4.08,11.38,5.66c5.13,1.58,10,2.38,14.6,2.38c5.02,0,9.3-0.85,12.85-2.54
					c1.96-0.94,3.53-2.19,4.7-3.76c1.17-1.56,1.75-3.19,1.75-4.89c0-2.56-1.38-4.39-4.13-5.48c-1.92-0.75-5.81-1.45-11.66-2.09
					l-8.72-0.9c-5.85-0.6-9.98-1.18-12.39-1.73c-2.42-0.55-4.83-1.42-7.24-2.63c-3.43-1.7-6.13-4.25-8.09-7.65
					c-1.77-3.06-2.66-6.57-2.66-10.54c0-6.53,2.24-11.93,6.74-16.2c5.89-5.63,14.72-8.44,26.49-8.44c4.94,0,9.55,0.5,13.81,1.51
					c4.26,1,9.58,2.85,15.96,5.54c2.19,0.87,3.53,1.31,4.02,1.31c0.79,0,1.72-0.44,2.77-1.31L691.62,203.71z"/>
				<path class="st1" d="M722.01,233v19.53h-1.81c-0.38-1.36-0.87-2.3-1.47-2.83c-0.6-0.53-1.49-0.79-2.66-0.79h-13.92
					c-1.13,0-2.01,0.27-2.63,0.82c-0.62,0.55-1.1,1.48-1.44,2.8h-1.81V233h1.81c0.35,1.34,0.84,2.28,1.48,2.81
					c0.64,0.54,1.54,0.81,2.7,0.81h14.29c1.2,0,2.11-0.26,2.73-0.78s1.07-1.47,1.36-2.84H722.01z"/>
				<path class="st1" d="M298.6,312.52l-9.23,18.19l-1.58-0.91c0.04-0.38,0.06-0.68,0.06-0.91c0-1.28-1.09-2.66-3.28-4.13
					c-6.72-4.68-14.6-7.02-23.66-7.02c-4,0-7.53,0.49-10.58,1.47c-2.23,0.75-4.03,1.89-5.41,3.39c-1.38,1.51-2.07,3.15-2.07,4.92
					c0,2.9,1.75,4.88,5.26,5.94c1.81,0.53,5.7,1.09,11.66,1.7l8.89,0.9c5.28,0.57,9.56,1.34,12.82,2.32
					c3.26,0.98,6.16,2.36,8.69,4.13c2.57,1.85,4.59,4.28,6.08,7.29c1.49,3.02,2.24,6.24,2.24,9.67c0,5.43-1.75,10.26-5.26,14.48
					c-3.17,3.85-8.09,6.69-14.77,8.54c-4.98,1.39-10.32,2.09-16.02,2.09c-10.22,0-20.32-2.45-30.28-7.36
					c-2.11-0.98-3.38-1.47-3.79-1.47c-0.49,0-1.26,0.42-2.32,1.24l-1.64-0.85l8.38-18.96l1.64,0.79c0,0.34,0,0.59,0,0.74
					c0,1.7,0.81,3.26,2.43,4.7c2.45,2.19,6.24,4.08,11.38,5.66c5.13,1.58,10,2.38,14.6,2.38c5.02,0,9.3-0.85,12.85-2.54
					c1.96-0.94,3.53-2.19,4.7-3.76c1.17-1.56,1.75-3.19,1.75-4.89c0-2.56-1.38-4.39-4.13-5.48c-1.92-0.75-5.81-1.45-11.66-2.09
					l-8.72-0.9c-5.85-0.6-9.98-1.18-12.39-1.73c-2.42-0.55-4.83-1.42-7.25-2.63c-3.43-1.7-6.13-4.25-8.09-7.65
					c-1.77-3.06-2.66-6.57-2.66-10.54c0-6.53,2.24-11.93,6.74-16.2c5.89-5.63,14.72-8.44,26.49-8.44c4.94,0,9.55,0.5,13.81,1.51
					c4.26,1,9.58,2.85,15.96,5.54c2.19,0.87,3.53,1.31,4.02,1.31c0.79,0,1.72-0.44,2.77-1.31L298.6,312.52z"/>
				<path class="st1" d="M330.69,349.33v21.17h49.69c1.13,0,2-0.26,2.6-0.79c0.6-0.53,1.09-1.47,1.47-2.83h1.81v19.98h-1.81
					c-0.38-1.36-0.87-2.3-1.47-2.83c-0.6-0.53-1.47-0.79-2.6-0.79H310.2v-1.81c1.36-0.38,2.3-0.87,2.83-1.47
					c0.53-0.6,0.79-1.49,0.79-2.66v-65.37c0-1.17-0.26-2.06-0.79-2.66c-0.53-0.6-1.47-1.09-2.83-1.47v-1.81h68.82
					c1.13,0,2-0.27,2.6-0.81c0.6-0.54,1.09-1.48,1.47-2.82h1.81v19.98h-1.81c-0.38-1.34-0.87-2.28-1.47-2.82
					c-0.6-0.54-1.47-0.8-2.6-0.8h-48.33v18.34h31.35c1.13,0,2-0.26,2.6-0.79c0.6-0.53,1.09-1.47,1.47-2.83h1.81v19.53h-1.81
					c-0.38-1.32-0.87-2.25-1.47-2.8c-0.6-0.55-1.47-0.82-2.6-0.82H330.69z"/>
				<path class="st1" d="M418.75,351.71v25.64c0,1.13,0.27,2.01,0.82,2.63c0.55,0.62,1.48,1.1,2.8,1.44v1.81h-24.11v-1.81
					c1.36-0.38,2.3-0.87,2.83-1.47c0.53-0.6,0.79-1.47,0.79-2.6v-65.43c0-1.17-0.26-2.06-0.79-2.66c-0.53-0.6-1.47-1.09-2.83-1.47
					v-1.81h48.33c5.89,0,10.56,0.34,14.01,1.02c3.45,0.68,6.46,1.87,9.03,3.56c2.98,1.96,5.21,4.62,6.68,7.98
					c1.4,3.24,2.09,6.72,2.09,10.41c0,12.6-7,19.98-21,22.13l15,21.34c2.64,3.74,4.57,6.14,5.8,7.22c1.23,1.08,2.73,1.67,4.5,1.78
					v1.81H454.8v-1.81c1.92-0.3,2.88-0.98,2.88-2.04c0-0.68-0.89-2.32-2.66-4.92l-15.65-22.75H418.75z M418.75,338.97h26.03
					c3.85,0,6.56-0.11,8.15-0.34c1.58-0.23,3.04-0.7,4.36-1.41c2.87-1.55,4.3-4.34,4.3-8.38c0-4.04-1.43-6.83-4.3-8.38
					c-1.36-0.75-2.8-1.24-4.33-1.44c-1.53-0.21-4.25-0.31-8.18-0.31h-26.03V338.97z"/>
				<path class="st1" d="M527.22,360.77l20.5-45.34c0.87-1.93,1.3-3.41,1.3-4.47c0-1.62-1.25-2.68-3.74-3.17v-1.81h26.45v1.81
					c-1.66,0.23-2.81,0.7-3.46,1.42c-0.64,0.72-1.76,2.79-3.34,6.23l-26.79,57.79c-1.13,2.45-1.7,4.06-1.7,4.81
					c0,1.92,1.19,3.06,3.57,3.4v1.81h-26.62v-1.81c2.38-0.34,3.57-1.49,3.57-3.45c0-0.72-0.57-2.3-1.7-4.75l-26.79-57.79
					c-1.59-3.43-2.7-5.51-3.34-6.23s-1.79-1.19-3.45-1.42v-1.81h27.44v1.81c-2.49,0.49-3.74,1.55-3.74,3.17
					c0,1.06,0.43,2.55,1.3,4.47L527.22,360.77z"/>
				<path class="st1" d="M581.92,377.29v-65.43c0-1.13-0.26-2-0.79-2.6c-0.53-0.6-1.47-1.09-2.83-1.47v-1.81h24.11v1.81
					c-1.36,0.34-2.3,0.82-2.83,1.44c-0.53,0.62-0.79,1.5-0.79,2.63v65.43c0,1.17,0.27,2.07,0.82,2.69c0.55,0.62,1.48,1.1,2.8,1.44
					v1.81H578.3v-1.81c1.36-0.38,2.3-0.87,2.83-1.47C581.66,379.34,581.92,378.46,581.92,377.29z"/>
				<path class="st1" d="M691.16,356.69l10.75,16.1l-1.47,1.02c-1.06-0.98-1.93-1.47-2.6-1.47s-2.58,0.91-5.72,2.72
					c-6.49,3.74-11.95,6.27-16.39,7.57c-4.43,1.3-9.71,1.96-15.82,1.96c-12.19,0-22.19-2.89-30-8.66
					c-4.6-3.36-8.23-7.53-10.87-12.51c-3.06-5.7-4.58-11.98-4.58-18.85c0-9.36,2.74-17.49,8.21-24.39
					c8.22-10.38,20.66-15.56,37.3-15.56c6.11,0,11.36,0.64,15.73,1.92c4.38,1.28,9.85,3.81,16.41,7.58
					c3.13,1.77,5.04,2.66,5.72,2.66s1.55-0.49,2.6-1.47l1.47,1.02l-10.75,16.13l-1.53-1.02c0.08-0.6,0.11-1.11,0.11-1.52
					c0-1.09-0.47-2.11-1.42-3.07c-0.94-0.96-2.62-2.11-5.04-3.47c-6.68-3.76-13.75-5.64-21.22-5.64c-8.83,0-15.87,2.21-21.11,6.62
					c-6.19,5.16-9.28,11.91-9.28,20.24c0,8.33,3.09,15.08,9.28,20.24c5.24,4.41,12.28,6.62,21.11,6.62c7.47,0,14.55-1.89,21.22-5.66
					c2.41-1.36,4.09-2.52,5.04-3.48c0.94-0.96,1.42-1.99,1.42-3.08c0-0.42-0.04-0.91-0.11-1.47L691.16,356.69z"/>
				<path class="st1" d="M734,349.33v21.17h49.69c1.13,0,2-0.26,2.6-0.79c0.6-0.53,1.09-1.47,1.47-2.83h1.81v19.98h-1.81
					c-0.38-1.36-0.87-2.3-1.47-2.83c-0.6-0.53-1.47-0.79-2.6-0.79h-70.18v-1.81c1.36-0.38,2.3-0.87,2.83-1.47
					c0.53-0.6,0.79-1.49,0.79-2.66v-65.37c0-1.17-0.26-2.06-0.79-2.66c-0.53-0.6-1.47-1.09-2.83-1.47v-1.81h68.82
					c1.13,0,2-0.27,2.6-0.81c0.6-0.54,1.09-1.48,1.47-2.82h1.81v19.98h-1.81c-0.38-1.34-0.87-2.28-1.47-2.82
					c-0.6-0.54-1.47-0.8-2.6-0.8H734v18.34h31.35c1.13,0,2-0.26,2.6-0.79c0.6-0.53,1.09-1.47,1.47-2.83h1.81v19.53h-1.81
					c-0.38-1.32-0.87-2.25-1.47-2.8c-0.6-0.55-1.47-0.82-2.6-0.82H734z"/>
			</g>
		</g>
		<g>
			<g>
				<path class="st2" d="M168.18,341.86c-16.54-1.34-31.03,10.98-32.37,27.51c-1.34,16.54,10.98,31.03,27.51,32.37
					c16.54,1.34,31.03-10.98,32.37-27.51C197.04,357.69,184.72,343.2,168.18,341.86z M170.49,396.53c-2.07,0.16-4.07,0.16-5.98,0.01
					c-11.18-0.91-19.5-7.11-22.8-17.31c-3.14-9.71-0.36-19.85,6.61-24.09l1.48-0.9l-0.69,1.59c-3.41,7.87-3.92,15.63-1.05,22.11
					c4.9,11.06,17.48,15.8,22.56,17.53l2.52,0.86L170.49,396.53z"/>
				<path class="st2" d="M105.54,342.35c0.91-14.4-9.87-26.93-24.31-28.1c-14.59-1.18-27.39,9.69-28.57,24.28
					s9.69,27.39,24.28,28.57c9.52,0.77,18.27-3.59,23.53-10.76l29.5,11.72c0.53-5.19,3.22-12.35,6.65-16.13L105.54,342.35z
					 M77.38,361.44c-12.18-1.43-18.72-11.12-19.8-20.09c-1.02-8.54,2.56-15.64,9.15-18.08l1.59-0.59l-0.94,1.41
					c-4.01,6-5.61,12.16-4.17,18.32c1.95,8.35,8.92,14.78,14.51,18.01l2.31,1.33L77.38,361.44z"/>
				<path class="st2" d="M154.61,316.1c3.43-3.38,5.73-7.95,6.15-13.12c0.93-11.45-7.6-21.48-19.05-22.41
					c-11.45-0.93-21.48,7.6-22.41,19.05c-0.29,3.6,0.35,7.05,1.72,10.13l-18.99,11.36c4.23,3.3,6.59,9.41,7.71,13.41l20.57-14.83
					c2.42,1.28,5.13,2.11,8.03,2.34c2.19,0.18,4.34,0,6.37-0.47l7,18.24c3.89-2.59,8.87-3.64,13.47-3.41L154.61,316.1z
					 M147.57,288.92c-5.71-1.28-10.74-0.5-14.94,2.31c-4.33,2.9-7.49,7.9-8.44,13.36l-0.45,2.59l-0.62-2.56
					c-2.06-8.4,2.44-14.49,7.34-17.39c6.01-3.56,13.25-3.25,17.61,0.74l1.52,1.39L147.57,288.92z"/>
			</g>
		</g>
	</g>
</g>
</svg>
